<svg id="Capa_1" enable-background="new 0 0 512 512" height="512" viewBox="0 0 512 512" width="512" xmlns="http://www.w3.org/2000/svg"><g><path d="m147.348 322.686c1.927-3.657 6.434-5.075 10.091-3.175s5.074 6.435 3.175 10.092l-57.8 110.666c-1.898 3.657-6.406 5.074-10.062 3.175s-5.074-6.435-3.175-10.091zm-20.695-135.044c3.94 1.275 6.095 5.499 4.819 9.439-1.275 3.94-5.5 6.095-9.44 4.819-20.579-6.775-38.268-19.9-50.683-37.078-2.778-3.855-5.301-7.937-7.54-12.161l-48.813 48.785v121.948c0 4.139-3.346 7.512-7.484 7.512s-7.512-3.373-7.512-7.511v-125.066c0-2.069.851-3.968 2.24-5.329l55.19-55.191c-3.458-10.205-5.328-21.147-5.328-32.543 0-28.063 11.366-53.49 29.764-71.887 18.425-18.397 43.823-29.793 71.915-29.793 28.063 0 53.49 11.395 71.888 29.793 18.426 18.396 29.793 43.824 29.793 71.887 0 4.933-.369 9.894-1.078 14.769h43.852c2.269 0 4.111.964 5.642 2.495l88.102 88.102c2.92 2.92 2.92 7.682 0 10.602-2.947 2.948-7.683 2.948-10.63 0l-86.26-86.259h-77.755l-13.72 13.691 44.362 44.363c1.475 1.474 2.211 3.402 2.211 5.301v72.482l51.45-51.478c2.92-2.92 7.682-2.92 10.602 0 2.92 2.948 2.92 7.682 0 10.63l-62.052 62.051v109.418l87.933 87.961c2.125 2.126 4.96 3.175 7.767 3.175 2.806 0 5.641-1.049 7.767-3.175l140.175-140.176c2.125-2.126 3.174-4.961 3.174-7.767s-1.049-5.641-3.174-7.767l-88.442-88.414c-2.92-2.948-2.92-7.682 0-10.602 2.92-2.948 7.682-2.948 10.602 0l88.442 88.414c5.045 5.074 7.568 11.708 7.568 18.369 0 6.662-2.523 13.294-7.568 18.369l-140.176 140.175c-5.074 5.045-11.707 7.568-18.368 7.568s-13.295-2.523-18.368-7.568l-77.331-77.358v59.812c0 7.144-2.919 13.635-7.625 18.34-4.705 4.706-11.196 7.625-18.34 7.625h-198.258c-7.143 0-13.635-2.92-18.341-7.625-4.705-4.706-7.625-11.197-7.625-18.341v-125.066c0-4.139 3.373-7.512 7.512-7.512s7.484 3.374 7.484 7.512v125.066c0 3.004 1.246 5.754 3.231 7.738 1.984 1.985 4.734 3.232 7.739 3.232h198.258c3.005 0 5.727-1.247 7.738-3.232 1.984-1.984 3.232-4.734 3.232-7.738v-281.001l-55.05-55.021h-102.7c1.813 3.345 3.826 6.549 6.037 9.61 10.602 14.654 25.682 25.851 43.172 31.606zm112.566-67.607c.851-4.904 1.247-9.78 1.247-14.769 0-23.924-9.694-45.61-25.398-61.285-15.677-15.676-37.361-25.399-61.286-25.399-23.952 0-45.61 9.723-61.286 25.399-15.703 15.675-25.397 37.361-25.397 61.285 0 9.128 1.389 17.916 3.997 26.136h112.167c2.069 0 3.969.851 5.329 2.24l4.423 4.422 15.873-15.874c1.616-1.616 3.828-2.353 5.954-2.154h24.377zm95.586 288.202c-2.92 2.92-7.683 2.92-10.602 0-2.92-2.92-2.92-7.683 0-10.602l77.868-77.869c2.92-2.919 7.653-2.919 10.602 0 2.92 2.949 2.92 7.683 0 10.602zm-50.203-50.232c-2.92 2.948-7.682 2.948-10.602 0-2.948-2.919-2.948-7.653 0-10.602l77.84-77.84c2.948-2.948 7.683-2.948 10.602 0 2.948 2.919 2.948 7.682 0 10.602zm-241.854-102.898c-4.14 0-7.514-3.373-7.514-7.512s3.374-7.512 7.514-7.512h8.957c4.139 0 7.483 3.373 7.483 7.512s-3.345 7.512-7.483 7.512zm155.736 0c-4.139 0-7.512-3.373-7.512-7.512s3.373-7.512 7.512-7.512h8.957c4.139 0 7.484 3.373 7.484 7.512s-3.346 7.512-7.484 7.512zm-51.902 0c-4.139 0-7.512-3.373-7.512-7.512s3.373-7.512 7.512-7.512h8.929c4.167 0 7.512 3.373 7.512 7.512s-3.345 7.512-7.512 7.512zm-51.932 0c-4.139 0-7.483-3.373-7.483-7.512s3.345-7.512 7.483-7.512h8.957c4.139 0 7.512 3.373 7.512 7.512s-3.373 7.512-7.512 7.512zm15.024 89.718c0 8.419-2.976 16.101-7.823 21.742-5.131 5.924-12.246 9.609-20.212 9.609-7.937 0-15.08-3.685-20.183-9.609-4.847-5.642-7.823-13.323-7.823-21.742s2.977-16.101 7.823-21.713c5.103-5.953 12.246-9.639 20.183-9.639 7.966 0 15.081 3.686 20.212 9.639 4.846 5.612 7.823 13.294 7.823 21.713zm-19.191 11.99c2.579-3.004 4.195-7.228 4.195-11.99 0-4.734-1.616-8.986-4.195-11.991-2.324-2.693-5.443-4.365-8.845-4.365-3.373 0-6.52 1.672-8.816 4.365-2.58 3.005-4.195 7.257-4.195 11.991 0 4.762 1.615 8.986 4.195 11.99 2.296 2.693 5.442 4.365 8.816 4.365 3.402 0 6.521-1.672 8.845-4.365zm104.572 63.696c0 8.418-2.977 16.101-7.824 21.713-5.131 5.953-12.246 9.638-20.211 9.638-7.938 0-15.08-3.686-20.183-9.638-4.848-5.613-7.823-13.295-7.823-21.713 0-8.419 2.976-16.102 7.823-21.742 5.103-5.925 12.245-9.609 20.183-9.609 7.965 0 15.08 3.685 20.211 9.609 4.847 5.64 7.824 13.323 7.824 21.742zm-19.192 11.99c2.58-3.004 4.195-7.256 4.195-11.99 0-4.762-1.615-8.986-4.195-12.019-2.324-2.665-5.442-4.337-8.844-4.337-3.373 0-6.52 1.673-8.815 4.337-2.608 3.033-4.195 7.257-4.195 12.019 0 4.734 1.587 8.986 4.195 11.99 2.296 2.693 5.442 4.366 8.815 4.366 3.402 0 6.52-1.673 8.844-4.366z"/></g></svg>