<svg id="icon" height="512" viewBox="0 0 64 64" width="512" xmlns="http://www.w3.org/2000/svg"><g id="kitchen_utensils-kitchen-utensils-tool-spoon" data-name="kitchen utensils-kitchen-utensils-tool-spoon"><path d="m57 3h-50a4 4 0 0 0 -4 4v1a1 1 0 0 0 1 1h56a1 1 0 0 0 1-1v-1a4 4 0 0 0 -4-4z" fill="#ee8700"/><path d="m13 31.23v12.77h-4v-12.77a2.982 2.982 0 0 0 4 0z" fill="#d8d7da"/><path d="m33 31.23v11.02a8.125 8.125 0 0 0 -4 0v-11.02a2.982 2.982 0 0 0 4 0z" fill="#d8d7da"/><path d="m8 13h6v4h-6z" fill="#e6e7e8"/><path d="m13 31.23v3a2.982 2.982 0 0 1 -4 0v-3a2.982 2.982 0 0 0 4 0z" fill="#c6c5ca"/><path d="m33 31.23v3a2.982 2.982 0 0 1 -4 0v-3a2.982 2.982 0 0 0 4 0z" fill="#c6c5ca"/><path d="m9 32.23a2.94 2.94 0 0 1 -1-2.23v-13h6v13a2.993 2.993 0 0 1 -.88 2.12 1.2 1.2 0 0 1 -.12.11 2.982 2.982 0 0 1 -4 0z" fill="#3d9ae2"/><path d="m14 10v3h-6v-3a2.772 2.772 0 0 1 .18-1 2.988 2.988 0 0 1 5.64 0 2.772 2.772 0 0 1 .18 1z" fill="#3d9ae2"/><path d="m17 61h-12a2.006 2.006 0 0 1 -2-2v-10.93a1.981 1.981 0 0 1 .89-1.66l5.11-3.41h4l5.11 3.41a1.981 1.981 0 0 1 .89 1.66v10.93a2.006 2.006 0 0 1 -2 2z" fill="#ff9811"/><path d="m34 10v3h-6v-3a2.772 2.772 0 0 1 .18-1 2.838 2.838 0 0 1 .7-1.12 2.99 2.99 0 0 1 4.94 1.12 2.772 2.772 0 0 1 .18 1z" fill="#3d9ae2"/><path d="m28 13h6v4h-6z" fill="#e6e7e8"/><path d="m34 20v10a2.993 2.993 0 0 1 -.88 2.12 1.2 1.2 0 0 1 -.12.11 3 3 0 0 1 -5-2.23v-13h6z" fill="#3d9ae2"/><path d="m33 41.25a8.006 8.006 0 0 1 6 7.75c0 4.42-3.58 12-8 12s-8-7.58-8-12a8.006 8.006 0 0 1 6-7.75 8.125 8.125 0 0 1 4 0z" fill="#ff9811"/><path d="m54 31 6.21 18.62a8.653 8.653 0 0 1 -8.21 11.38 5.079 5.079 0 0 0 5.01-5.92l-4.01-24.08z" fill="#d8d7da"/><path d="m52 31v30a5.079 5.079 0 0 1 -5.08-5.07 4.956 4.956 0 0 1 .07-.85l4.01-24.08z" fill="#d8d7da"/><path d="m52 61a8.653 8.653 0 0 1 -8.21-11.38l6.21-18.62h1l-4.01 24.08a4.956 4.956 0 0 0 -.07.85 5.079 5.079 0 0 0 5.08 5.07z" fill="#d8d7da"/><path d="m53 31 4.01 24.08a5.079 5.079 0 0 1 -5.01 5.92v-30z" fill="#d8d7da"/><path d="m52 7a4.01 4.01 0 1 1 -3.46 2 3.98 3.98 0 0 1 3.46-2z" fill="#3d9ae2"/><g fill="#ee8700"><path d="m10 48h2v2h-2z"/><path d="m6 48h2v2h-2z"/><path d="m6 52h2v2h-2z"/><path d="m10 52h2v2h-2z"/><path d="m14 52h2v2h-2z"/><path d="m14 48h2v2h-2z"/><path d="m14 56h2v2h-2z"/><path d="m10 56h2v2h-2z"/><path d="m6 56h2v2h-2z"/></g><path d="m61.153 49.3-6.2-18.615a1 1 0 0 0 -.953-.685h-4a1 1 0 0 0 -.948.684l-6.205 18.616a9.649 9.649 0 1 0 18.306 0zm-10.153-12.218v22.782a4.059 4.059 0 0 1 -3.027-4.618zm4.115 21.474a4.065 4.065 0 0 1 -2.115 1.308v-22.782l3.027 18.164a4.072 4.072 0 0 1 -.912 3.31zm-10.372-8.624 4.175-12.525-2.918 17.51a6.083 6.083 0 0 0 .047 2.216c-.083-.1-.173-.2-.252-.31a7.571 7.571 0 0 1 -1.052-6.891zm13.462 6.891c-.079.11-.169.206-.252.31a6.083 6.083 0 0 0 .047-2.216l-2.918-17.51 4.175 12.525a7.571 7.571 0 0 1 -1.052 6.891z" fill="#ff9811"/><path d="m51 10h2v2h-2z" fill="#1e81ce"/><path d="m28 49h-2a5.006 5.006 0 0 1 5-5v2a3 3 0 0 0 -3 3z" fill="#ee8700"/><path d="m55 30a1 1 0 0 1 -1 1h-4a1 1 0 0 1 -1-1v-12a3 3 0 0 1 6 0z" fill="#3d9ae2"/></g></svg>