<?xml version="1.0" encoding="iso-8859-1"?>
<!-- Generator: Adobe Illustrator 19.0.0, SVG Export Plug-In . SVG Version: 6.00 Build 0)  -->
<svg version="1.1" id="Capa_1" xmlns="http://www.w3.org/2000/svg" xmlns:xlink="http://www.w3.org/1999/xlink" x="0px" y="0px"
	 viewBox="0 0 512 512" style="enable-background:new 0 0 512 512;" xml:space="preserve">
<path style="fill:#4EB879;" d="M124.803,266.304c-1.464,1.464-3.384,2.196-5.303,2.196s-3.839-0.732-5.303-2.196L66.393,218.5H27.5
	c-4.142,0-7.5-3.357-7.5-7.5s3.358-7.5,7.5-7.5h23.893l-15-15H7.5c-4.142,0-7.5-3.357-7.5-7.5s3.358-7.5,7.5-7.5h13.893
	L2.197,154.304C0.79,152.896,0,150.989,0,149v-28c0-4.143,3.358-7.5,7.5-7.5s7.5,3.357,7.5,7.5v24.894l27.001,27.001v-24.89
	c0-4.143,3.358-7.5,7.5-7.5s7.5,3.357,7.5,7.5v39.89l17.802,17.801l0,0l50,50C127.732,258.626,127.732,263.374,124.803,266.304z"/>
<path style="fill:#FFF1BA;" d="M492,241c-11.046,0-20-8.954-20-20H353.82v-30H472c0-11.046,8.954-20,20-20s20,8.954,20,20
	c0,5.982-2.64,11.335-6.802,15c4.162,3.665,6.802,9.018,6.802,15C512,232.046,503.046,241,492,241z"/>
<path style="fill:#F15950;" d="M410.5,216v185h-330V216c0-63.513,51.487-115,115-115h100C359.013,101,410.5,152.487,410.5,216z"/>
<path style="fill:#CE4D48;" d="M410.5,216v185h-21V216c0-63.513-51.487-115-115-115h21C359.013,101,410.5,152.487,410.5,216z"/>
<path style="fill:#B04B42;" d="M335.729,151.821c-1.391,1.129-3.063,1.679-4.725,1.679c-2.181,0-4.344-0.946-5.826-2.771l-6.5-8
	c-2.611-3.215-2.123-7.938,1.092-10.551c3.215-2.611,7.938-2.123,10.551,1.092l6.5,8
	C339.433,144.485,338.944,149.209,335.729,151.821z M342.055,199.91c-4.113-0.43-7.807,2.568-8.231,6.688l-1.061,10.253
	c-0.427,4.12,2.568,7.806,6.688,8.231c0.262,0.027,0.522,0.041,0.78,0.041c3.796,0,7.053-2.871,7.451-6.729l1.061-10.253
	C349.17,204.021,346.175,200.336,342.055,199.91z M376.075,164.982c-2.771-3.081-7.514-3.327-10.592-0.557l-10,9
	c-3.078,2.771-3.328,7.513-0.557,10.592c1.48,1.646,3.524,2.482,5.576,2.482c1.788,0,3.582-0.636,5.016-1.926l10-9
	C378.597,172.804,378.847,168.062,376.075,164.982z"/>
<path style="fill:#FF8E8C;" d="M309.499,216v185h-230V216c0-63.513,51.487-115,115-115l0,0C258.012,101,309.499,152.487,309.499,216
	z"/>
<path style="fill:#FF6165;" d="M279.499,216v185h-170V216c0-46.944,38.056-85,85-85l0,0C241.444,131,279.499,169.056,279.499,216z"
	/>
<path style="fill:#FFF1BA;" d="M219.499,206c0,13.807-11.193,25-25,25s-25-11.193-25-25s11.193-25,25-25
	S219.499,192.193,219.499,206z"/>
<g>
	<path style="fill:#4EB879;" d="M175.803,276.304L158.607,293.5H170.5c4.142,0,7.5,3.357,7.5,7.5s-3.358,7.5-7.5,7.5h-26.893
		l-47.804,47.804c-1.464,1.464-3.384,2.196-5.303,2.196s-3.839-0.732-5.303-2.196c-2.929-2.93-2.929-7.678,0-10.607L133,297.894V271
		c0-4.143,3.358-7.5,7.5-7.5s7.5,3.357,7.5,7.5v11.894l15-15V251c0-4.143,3.358-7.5,7.5-7.5s7.5,3.357,7.5,7.5v20
		C178,272.989,177.21,274.896,175.803,276.304z"/>
	<path style="fill:#4EB879;" d="M305.5,390h-44.134c-3.526,0.646-7.153,1-10.866,1s-7.34-0.354-10.866-1H195.5v-35.015
		c-3.209-7.347-5-15.455-5-23.985c0-33.137,26.863-60,60-60s60,26.863,60,60c0,8.53-1.791,16.638-5,23.985V390z"/>
</g>
<path style="fill:#FF9C41;" d="M168.383,374.313c2.382,2.382,1.796,6.432-1.206,7.961c-30.147,15.358-67.961,10.447-93.179-14.771
	c-25.219-25.219-30.13-63.033-14.772-93.18c1.529-3.002,5.579-3.588,7.961-1.206L168.383,374.313z M379.923,321H236.81
	c-3.369,0-5.818,3.278-4.776,6.482c10.457,32.177,40.669,55.443,76.333,55.443c0.38,0,0.755-0.018,1.134-0.023V390h60v-35.35
	c6.711-7.888,11.924-17.091,15.199-27.168C385.741,324.278,383.292,321,379.923,321z"/>
<path style="fill:#FFB45A;" d="M433.814,273.117c2.382-2.382,6.432-1.796,7.961,1.206c15.358,30.147,10.447,67.961-14.772,93.179
	c-25.218,25.218-63.032,30.13-93.179,14.772c-3.002-1.529-3.589-5.579-1.206-7.961L433.814,273.117z"/>
<path style="fill:#89DF8F;" d="M214.502,361c0,16.568-13.431,30-30,30c-16.568,0-30-13.432-30-30s13.432-30,30-30
	C201.071,331,214.502,344.432,214.502,361z M430.5,331c-16.569,0-30,13.432-30,30s13.431,30,30,30s30-13.432,30-30
	S447.069,331,430.5,331z"/>
<path style="fill:#C97D5D;" d="M512,396c0,8.284-6.716,15-15,15H15c-8.284,0-15-6.716-15-15s6.716-15,15-15h482
	C505.284,381,512,387.716,512,396z"/>
<g>
</g>
<g>
</g>
<g>
</g>
<g>
</g>
<g>
</g>
<g>
</g>
<g>
</g>
<g>
</g>
<g>
</g>
<g>
</g>
<g>
</g>
<g>
</g>
<g>
</g>
<g>
</g>
<g>
</g>
</svg>
