<svg height="512" viewBox="0 0 64 64" width="512" xmlns="http://www.w3.org/2000/svg"><g id="flat"><rect fill="#f9bb4b" height="7" rx="2" width="50" x="7" y="3"/><path d="m11 10h42a0 0 0 0 1 0 0v48a3 3 0 0 1 -3 3h-36a3 3 0 0 1 -3-3v-48a0 0 0 0 1 0 0z" fill="#e4544f"/><path d="m31 47.97a17 17 0 0 1 0-33.94h2a17 17 0 0 1 0 33.94z" fill="#f4f4e6"/><path d="m24 21a8 8 0 0 1 8 8 0 0 0 0 1 0 0 8 8 0 0 1 -8-8 0 0 0 0 1 0 0z" fill="#55b56a"/><path d="m24 31a8 8 0 0 1 8 8 0 0 0 0 1 0 0 8 8 0 0 1 -8-8 0 0 0 0 1 0 0z" fill="#55b56a"/><path d="m40 21a0 0 0 0 1 0 0 8 8 0 0 1 -8 8 0 0 0 0 1 0 0 8 8 0 0 1 8-8z" fill="#55b56a" transform="matrix(-1 0 0 -1 72 50)"/><path d="m40 31a0 0 0 0 1 0 0 8 8 0 0 1 -8 8 0 0 0 0 1 0 0 8 8 0 0 1 8-8z" fill="#55b56a" transform="matrix(-1 0 0 -1 72 70)"/><path d="m31 25h2v17h-2z" fill="#c8d952"/><path d="m33 44v3.97c-.33.02-.67.03-1 .03s-.67-.01-1-.03v-3.97z" fill="#c8d952"/><path d="m33 14.03v7.97h-2v-7.97c.33-.02.67-.03 1-.03s.67.01 1 .03z" fill="#c8d952"/><g fill="#f98c96"><path d="m47 56h2v2h-2z"/><path d="m43 56h2v2h-2z"/><path d="m39 56h2v2h-2z"/><path d="m35 56h2v2h-2z"/><path d="m31 56h2v2h-2z"/><path d="m27 56h2v2h-2z"/><path d="m23 56h2v2h-2z"/><path d="m19 56h2v2h-2z"/><path d="m15 56h2v2h-2z"/><path d="m17 52h2v2h-2z"/><path d="m21 52h2v2h-2z"/><path d="m25 52h2v2h-2z"/><path d="m29 52h2v2h-2z"/><path d="m33 52h2v2h-2z"/><path d="m37 52h2v2h-2z"/><path d="m41 52h2v2h-2z"/><path d="m45 52h2v2h-2z"/></g><path d="m20 24h2v2h-2z" fill="#da1c4b"/><path d="m42 24h2v2h-2z" fill="#da1c4b"/><path d="m14 13h2v2h-2z" fill="#b11e48"/></g></svg>